<mxfile host="Electron" agent="Mozilla/5.0 (Windows NT 10.0; Win64; x64) AppleWebKit/537.36 (KHTML, like Gecko) draw.io/24.7.17 Chrome/128.0.6613.36 Electron/32.0.1 Safari/537.36" version="24.7.17">
  <diagram name="PÃ¡gina-1" id="z1li7U-XqdV79PXpUnW0">
    <mxGraphModel dx="858" dy="1044" grid="1" gridSize="10" guides="1" tooltips="1" connect="1" arrows="1" fold="1" page="1" pageScale="1" pageWidth="827" pageHeight="1169" math="0" shadow="0">
      <root>
        <mxCell id="0" />
        <mxCell id="1" parent="0" />
        <mxCell id="96qf83DqyLhSO01UxmnA-1" value="Card&lt;div&gt;&lt;br&gt;&lt;/div&gt;" style="swimlane;fontStyle=1;align=center;verticalAlign=top;childLayout=stackLayout;horizontal=1;startSize=26;horizontalStack=0;resizeParent=1;resizeParentMax=0;resizeLast=0;collapsible=1;marginBottom=0;whiteSpace=wrap;html=1;" vertex="1" parent="1">
          <mxGeometry x="580" y="420" width="160" height="146" as="geometry" />
        </mxCell>
        <mxCell id="96qf83DqyLhSO01UxmnA-2" value="&lt;u&gt;+ SUITS: list&lt;/u&gt;&lt;div&gt;&lt;u&gt;+ RANKS: list&lt;/u&gt;&lt;u&gt;&lt;br&gt;&lt;/u&gt;&lt;/div&gt;&lt;div&gt;+ suit:&lt;/div&gt;&lt;div&gt;+ rank:&lt;br&gt;&lt;/div&gt;&lt;div&gt;+ value:&lt;br&gt;&lt;/div&gt;" style="text;strokeColor=none;fillColor=none;align=left;verticalAlign=top;spacingLeft=4;spacingRight=4;overflow=hidden;rotatable=0;points=[[0,0.5],[1,0.5]];portConstraint=eastwest;whiteSpace=wrap;html=1;" vertex="1" parent="96qf83DqyLhSO01UxmnA-1">
          <mxGeometry y="26" width="160" height="84" as="geometry" />
        </mxCell>
        <mxCell id="96qf83DqyLhSO01UxmnA-3" value="" style="line;strokeWidth=1;fillColor=none;align=left;verticalAlign=middle;spacingTop=-1;spacingLeft=3;spacingRight=3;rotatable=0;labelPosition=right;points=[];portConstraint=eastwest;strokeColor=inherit;" vertex="1" parent="96qf83DqyLhSO01UxmnA-1">
          <mxGeometry y="110" width="160" height="10" as="geometry" />
        </mxCell>
        <mxCell id="96qf83DqyLhSO01UxmnA-4" value="+ __str__(): string" style="text;strokeColor=none;fillColor=none;align=left;verticalAlign=top;spacingLeft=4;spacingRight=4;overflow=hidden;rotatable=0;points=[[0,0.5],[1,0.5]];portConstraint=eastwest;whiteSpace=wrap;html=1;" vertex="1" parent="96qf83DqyLhSO01UxmnA-1">
          <mxGeometry y="120" width="160" height="26" as="geometry" />
        </mxCell>
        <mxCell id="96qf83DqyLhSO01UxmnA-5" value="&lt;div&gt;Deck&lt;/div&gt;" style="swimlane;fontStyle=1;align=center;verticalAlign=top;childLayout=stackLayout;horizontal=1;startSize=26;horizontalStack=0;resizeParent=1;resizeParentMax=0;resizeLast=0;collapsible=1;marginBottom=0;whiteSpace=wrap;html=1;" vertex="1" parent="1">
          <mxGeometry x="340" y="220" width="160" height="84" as="geometry" />
        </mxCell>
        <mxCell id="96qf83DqyLhSO01UxmnA-6" value="&lt;div&gt;+ cards: list[Card]&lt;/div&gt;" style="text;strokeColor=none;fillColor=none;align=left;verticalAlign=top;spacingLeft=4;spacingRight=4;overflow=hidden;rotatable=0;points=[[0,0.5],[1,0.5]];portConstraint=eastwest;whiteSpace=wrap;html=1;" vertex="1" parent="96qf83DqyLhSO01UxmnA-5">
          <mxGeometry y="26" width="160" height="24" as="geometry" />
        </mxCell>
        <mxCell id="96qf83DqyLhSO01UxmnA-7" value="" style="line;strokeWidth=1;fillColor=none;align=left;verticalAlign=middle;spacingTop=-1;spacingLeft=3;spacingRight=3;rotatable=0;labelPosition=right;points=[];portConstraint=eastwest;strokeColor=inherit;" vertex="1" parent="96qf83DqyLhSO01UxmnA-5">
          <mxGeometry y="50" width="160" height="8" as="geometry" />
        </mxCell>
        <mxCell id="96qf83DqyLhSO01UxmnA-8" value="+ __str__(): string" style="text;strokeColor=none;fillColor=none;align=left;verticalAlign=top;spacingLeft=4;spacingRight=4;overflow=hidden;rotatable=0;points=[[0,0.5],[1,0.5]];portConstraint=eastwest;whiteSpace=wrap;html=1;" vertex="1" parent="96qf83DqyLhSO01UxmnA-5">
          <mxGeometry y="58" width="160" height="26" as="geometry" />
        </mxCell>
        <mxCell id="96qf83DqyLhSO01UxmnA-11" value="CardsGame" style="swimlane;fontStyle=1;align=center;verticalAlign=top;childLayout=stackLayout;horizontal=1;startSize=26;horizontalStack=0;resizeParent=1;resizeParentMax=0;resizeLast=0;collapsible=1;marginBottom=0;whiteSpace=wrap;html=1;" vertex="1" parent="1">
          <mxGeometry x="60" y="390" width="180" height="190" as="geometry" />
        </mxCell>
        <mxCell id="96qf83DqyLhSO01UxmnA-12" value="&lt;div&gt;+ deck: Deck&lt;/div&gt;&lt;div&gt;- cards: list&lt;br&gt;&lt;/div&gt;&lt;div&gt;- players: list[Player]&lt;/div&gt;" style="text;strokeColor=none;fillColor=none;align=left;verticalAlign=top;spacingLeft=4;spacingRight=4;overflow=hidden;rotatable=0;points=[[0,0.5],[1,0.5]];portConstraint=eastwest;whiteSpace=wrap;html=1;" vertex="1" parent="96qf83DqyLhSO01UxmnA-11">
          <mxGeometry y="26" width="180" height="54" as="geometry" />
        </mxCell>
        <mxCell id="96qf83DqyLhSO01UxmnA-13" value="" style="line;strokeWidth=1;fillColor=none;align=left;verticalAlign=middle;spacingTop=-1;spacingLeft=3;spacingRight=3;rotatable=0;labelPosition=right;points=[];portConstraint=eastwest;strokeColor=inherit;" vertex="1" parent="96qf83DqyLhSO01UxmnA-11">
          <mxGeometry y="80" width="180" height="10" as="geometry" />
        </mxCell>
        <mxCell id="96qf83DqyLhSO01UxmnA-14" value="+ shuffle(): None&lt;div&gt;+ pull_card(): list&lt;/div&gt;&lt;div&gt;+ add_player(player): list&lt;br&gt;&lt;/div&gt;&lt;div&gt;+ start_game(): None&lt;br&gt;&lt;/div&gt;&lt;div&gt;+ play(): None&lt;br&gt;&lt;/div&gt;&lt;div&gt;+ show_winner(): None&lt;/div&gt;" style="text;strokeColor=none;fillColor=none;align=left;verticalAlign=top;spacingLeft=4;spacingRight=4;overflow=hidden;rotatable=0;points=[[0,0.5],[1,0.5]];portConstraint=eastwest;whiteSpace=wrap;html=1;" vertex="1" parent="96qf83DqyLhSO01UxmnA-11">
          <mxGeometry y="90" width="180" height="100" as="geometry" />
        </mxCell>
        <mxCell id="96qf83DqyLhSO01UxmnA-15" value="Player" style="swimlane;fontStyle=1;align=center;verticalAlign=top;childLayout=stackLayout;horizontal=1;startSize=26;horizontalStack=0;resizeParent=1;resizeParentMax=0;resizeLast=0;collapsible=1;marginBottom=0;whiteSpace=wrap;html=1;" vertex="1" parent="1">
          <mxGeometry x="330" y="395" width="180" height="180" as="geometry" />
        </mxCell>
        <mxCell id="96qf83DqyLhSO01UxmnA-16" value="&lt;div&gt;+ name: string&lt;/div&gt;&lt;div&gt;- hand: list[Card]&lt;/div&gt;" style="text;strokeColor=none;fillColor=none;align=left;verticalAlign=top;spacingLeft=4;spacingRight=4;overflow=hidden;rotatable=0;points=[[0,0.5],[1,0.5]];portConstraint=eastwest;whiteSpace=wrap;html=1;" vertex="1" parent="96qf83DqyLhSO01UxmnA-15">
          <mxGeometry y="26" width="180" height="44" as="geometry" />
        </mxCell>
        <mxCell id="96qf83DqyLhSO01UxmnA-17" value="" style="line;strokeWidth=1;fillColor=none;align=left;verticalAlign=middle;spacingTop=-1;spacingLeft=3;spacingRight=3;rotatable=0;labelPosition=right;points=[];portConstraint=eastwest;strokeColor=inherit;" vertex="1" parent="96qf83DqyLhSO01UxmnA-15">
          <mxGeometry y="70" width="180" height="10" as="geometry" />
        </mxCell>
        <mxCell id="96qf83DqyLhSO01UxmnA-18" value="+ score(): int&lt;div&gt;+ add_card(card): None&lt;br&gt;&lt;/div&gt;&lt;div&gt;+ showHand(): None&lt;br&gt;&lt;/div&gt;&lt;div&gt;+ still_playing(): bool&lt;br&gt;&lt;/div&gt;&lt;div&gt;+ get_playing(): ?&lt;/div&gt;" style="text;strokeColor=none;fillColor=none;align=left;verticalAlign=top;spacingLeft=4;spacingRight=4;overflow=hidden;rotatable=0;points=[[0,0.5],[1,0.5]];portConstraint=eastwest;whiteSpace=wrap;html=1;" vertex="1" parent="96qf83DqyLhSO01UxmnA-15">
          <mxGeometry y="80" width="180" height="100" as="geometry" />
        </mxCell>
        <mxCell id="96qf83DqyLhSO01UxmnA-22" value="" style="endArrow=open;html=1;rounded=0;endFill=0;entryX=0.001;entryY=0.056;entryDx=0;entryDy=0;entryPerimeter=0;" edge="1" parent="96qf83DqyLhSO01UxmnA-15" target="96qf83DqyLhSO01UxmnA-18">
          <mxGeometry width="50" height="50" relative="1" as="geometry">
            <mxPoint x="-90" y="85" as="sourcePoint" />
            <mxPoint x="-27" y="85" as="targetPoint" />
            <Array as="points">
              <mxPoint x="-40" y="85" />
            </Array>
          </mxGeometry>
        </mxCell>
        <mxCell id="96qf83DqyLhSO01UxmnA-24" value="" style="endArrow=open;html=1;rounded=0;endFill=0;exitX=1.002;exitY=0.118;exitDx=0;exitDy=0;exitPerimeter=0;" edge="1" parent="96qf83DqyLhSO01UxmnA-15" source="96qf83DqyLhSO01UxmnA-18">
          <mxGeometry width="50" height="50" relative="1" as="geometry">
            <mxPoint x="93" y="-5" as="sourcePoint" />
            <mxPoint x="253" y="92.35846030473158" as="targetPoint" />
          </mxGeometry>
        </mxCell>
        <mxCell id="96qf83DqyLhSO01UxmnA-26" value="" style="endArrow=open;html=1;rounded=0;endFill=0;entryX=0;entryY=0.5;entryDx=0;entryDy=0;" edge="1" parent="1" target="96qf83DqyLhSO01UxmnA-6">
          <mxGeometry width="50" height="50" relative="1" as="geometry">
            <mxPoint x="280" y="480" as="sourcePoint" />
            <mxPoint x="360" y="260" as="targetPoint" />
            <Array as="points">
              <mxPoint x="280" y="258" />
            </Array>
          </mxGeometry>
        </mxCell>
      </root>
    </mxGraphModel>
  </diagram>
</mxfile>
